<?xml version="1.0" encoding="utf-8"?>
<!-- Generator: Adobe Illustrator 18.0.0, SVG Export Plug-In . SVG Version: 6.00 Build 0)  -->
<!DOCTYPE svg PUBLIC "-//W3C//DTD SVG 1.1//EN" "http://www.w3.org/Graphics/SVG/1.1/DTD/svg11.dtd">
<svg version="1.1" id="Layer_1" xmlns="http://www.w3.org/2000/svg" xmlns:xlink="http://www.w3.org/1999/xlink" x="0px" y="0px"
	 viewBox="0 0 591.6 264.1" style="enable-background:new 0 0 591.6 264.1;" xml:space="preserve">
<style type="text/css">
	.st0{fill-rule:evenodd;clip-rule:evenodd;fill:url(#SVGID_1_);}
	.st1{fill-rule:evenodd;clip-rule:evenodd;fill:url(#SVGID_2_);}
	.st2{fill-rule:evenodd;clip-rule:evenodd;fill:url(#SVGID_3_);}
	.st3{fill-rule:evenodd;clip-rule:evenodd;fill:url(#SVGID_4_);}
	.st4{fill-rule:evenodd;clip-rule:evenodd;fill:url(#SVGID_5_);}
	.st5{fill-rule:evenodd;clip-rule:evenodd;fill:url(#SVGID_6_);}
	.st6{fill-rule:evenodd;clip-rule:evenodd;fill:url(#SVGID_7_);}
	.st7{fill-rule:evenodd;clip-rule:evenodd;fill:url(#SVGID_8_);}
	.st8{fill-rule:evenodd;clip-rule:evenodd;fill:url(#SVGID_9_);}
	.st9{fill-rule:evenodd;clip-rule:evenodd;fill:url(#SVGID_10_);}
	.st10{fill-rule:evenodd;clip-rule:evenodd;fill:url(#SVGID_11_);}
	.st11{fill-rule:evenodd;clip-rule:evenodd;fill:url(#SVGID_12_);}
	.st12{fill-rule:evenodd;clip-rule:evenodd;fill:url(#SVGID_13_);}
	.st13{fill-rule:evenodd;clip-rule:evenodd;fill:url(#SVGID_14_);}
	.st14{fill-rule:evenodd;clip-rule:evenodd;fill:url(#SVGID_15_);}
	.st15{fill-rule:evenodd;clip-rule:evenodd;fill:url(#SVGID_16_);}
	.st16{fill-rule:evenodd;clip-rule:evenodd;fill:url(#SVGID_17_);}
	.st17{fill-rule:evenodd;clip-rule:evenodd;fill:url(#SVGID_18_);}
	.st18{fill-rule:evenodd;clip-rule:evenodd;fill:url(#SVGID_19_);}
	.st19{fill-rule:evenodd;clip-rule:evenodd;fill:url(#SVGID_20_);}
	.st20{fill-rule:evenodd;clip-rule:evenodd;fill:#58595B;}
</style>
<linearGradient id="SVGID_1_" gradientUnits="userSpaceOnUse" x1="295.8135" y1="186.3736" x2="295.8135" y2="83.1959">
	<stop  offset="0" style="stop-color:#58595B"/>
	<stop  offset="1" style="stop-color:#A7A9AC"/>
</linearGradient>
<path class="st0" d="M271.7,83.2l-7.3,13.6H95.3l-24.9,69.6c-2.3,6.4-5.3,8.6-10.9,11.3c-15.2,7.4-40.2,11-54.8,7.2
	c-3.9-1-7.9-16.6-1.1-15.9c11.7,1.3,40.2-1,48-4.9c4.9-2.4,10.2-11.8,11.4-15.1l18.1-52.2h-39c-4.6,0-8.8,1.3-12.4,4.1
	c-4,2.9-6,6.7-6,11.1c0,3.1,1,4.9,3.1,5.3c1.1-3.6,3-6.4,5.9-8.5c2.6-1.8,5.6-2.7,8.9-2.7c4.2,0,7.6,1.3,10.2,4.1
	c2.4,2.5,3.6,5.5,3.6,9c0,3.7-1.4,6.8-4.3,9.2c-3.2,2.8-7.7,4.2-13.5,4.2c-6.3,0-11.7-1.8-16.2-5.2c-5.1-4-7.7-9.4-7.7-16.2
	c0-7.4,3-13.7,8.9-19c6.7-6,15.8-9,27.4-9H271.7L271.7,83.2z M483.3,93l4.3-9.8H321.2c-22.4,0-33.5,6.6-33.5,19.7
	c0,4,1.5,9.7,4.4,17c2.9,7.3,4.4,12.8,4.4,16.7c0,5.7-2.3,10-7,13c-4,2.6-9,3.9-14.9,3.9c-4.7,0-9.1-0.9-13.3-2.6
	c-5.4-2.3-8-5.5-8-9.6c0-3.6,1.9-6.3,5.8-8.1c3-1.4,6.5-2.1,10.5-2.1h16l-3.9-8.6h-20.5c-20,0-29.9,5.9-29.9,17.6
	c0,8.1,5.4,14,16.3,17.9c7.7,2.8,16.5,4.2,26.5,4.2c10.9,0,20.4-1.8,28.6-5.5c10.9-4.9,16.4-12.3,16.4-22.2c0-4.6-1.6-11-4.8-19.1
	c-3.2-8.1-4.8-13.4-4.8-15.7c0-4.6,2.7-6.9,8.2-6.9C317.9,92.8,481.7,92.9,483.3,93L483.3,93z M591.6,122.4
	c-1.2,5.7-5.8,8.6-13.9,8.6h-35.9c3.3,3.1,4.8,8.4,4.5,16.2c-0.4,9.1-5.2,17.2-14.6,24.4c-8.4,6.4-16.5,9.6-24.2,9.3
	c-1.5,0-2.8-0.6-3.9-1.7c-1.2-1.1-1.7-2.5-1.7-4c0-0.6,0.1-1.2,0.4-1.9l7-19.8c-1.1,1.7-2.7,3-4.8,4c-2.3,1.1-4.7,1.6-7.3,1.6h-20.8
	c-5.3,0-8-1.8-8-5.5c0-0.4,0-0.9,0.1-1.3c-0.9,1.9-2.4,3.5-4.5,4.7c-2.4,1.4-5.2,2.1-8.3,2.1h-30.1c-12.8,0-21-2.8-24.4-8.5
	c-1,3.1-2.9,5.4-6,6.9c-2.2,1.1-4.6,1.6-7.1,1.6h-23c-4.1,0-6.1-1.5-6.1-4.4c0-1.2,0.3-2.6,0.8-4.2l3.6-11.5l-20.3,16.8
	c-2.5,2.2-5.1,3.3-7.9,3.3h-11l18.9-60.7h19.2L349,141.1l16.8-14.4c4.3-3.7,9.3-5.6,14.8-5.6c3.7,0,5.5,1.8,5.5,5.4
	c0,1.3-0.3,2.8-1,4.5l-6.3,19.6h22.3c-1.2-2-1.8-4.4-1.8-7.2c0-6.8,3-12.1,9-15.9c5.1-3.3,11.3-5,18.4-5h7.8c4.6,0,8.6,0.7,12,2.1
	c4.6,1.9,7,4.7,7.2,8.5c0.2,3.9-1.7,7-5.5,9.6h-17.8l5.7-11.6h-11.4l-4.4,13c-0.2,0.8-0.4,1.4-0.4,2c0,2.9,2.3,4.4,7,4.4h41.9l0,0
	l23.7-67.3h18.9l-23.7,67.3h22.5l5.6-15.8c-1.8-0.5-3.4-1.5-4.7-2.9c-1.5-1.6-2.2-3.4-2.2-5.5c0-1.3,0.3-2.6,0.9-3.9h10.2l14-39.3
	h19.5l-15.9,39.3H591.6L591.6,122.4z M530.4,155.6c0.9-2.8,1.4-5.2,1.4-7.3c0-2.9-1-5.2-2.9-6.6c-2.9,6.9-7.6,17.3-13.8,31.1
	c2.9-1.5,6-4.1,9.2-7.8C527.4,161.5,529.5,158.3,530.4,155.6L530.4,155.6z M227.4,150.5h-28.9c3.2-0.9,6.1-2.9,8.6-5.9
	c2.4-2.9,3.7-5.8,3.8-8.7c0.3-6.5-3.2-10.6-10.3-12.4c-2.8-0.7-8.2-1.1-16.2-1.1l0,0h-0.8h-0.4l4.5-13h-19.4l-4.1,13h-46.8
	c-7.9,0-14.2,1.6-19,4.9c-4.5,3.1-7.2,7.4-8.1,12.8c-0.2,1-0.3,2-0.3,2.9c0,4.9,2,8.9,6.1,11.9c4.6,3.4,11.1,5.1,19.6,5
	c7.3,0,13.2-1.7,17.8-5c4.8-3.4,7.4-8.1,7.9-14.2c0.1-1.5-0.2-3.4-0.9-5.5c-0.8-2.1-1.7-3.6-2.9-4.3h23.9l-15.2,48.9h19.4l15.3-48.9
	c2.7-0.1,5.1,0.6,7.3,2.2c2.2,1.5,3.3,3.3,3.3,5.3c0,3.2-0.8,5.8-2.5,7.9c-1.2,1.5-3,2.9-5.4,3.9c-1.7,0.6-3.4,1.3-5,2
	c0.1,4.5,2.4,6.8,6.8,6.8h29.4c3.1,0,5.9-0.7,8.2-2.1C225.6,155.5,227.1,153.3,227.4,150.5L227.4,150.5z M125.6,131.1h-12.4
	l-4.8,13.9c-0.2,0.7-0.4,1.4-0.4,2c0,3.1,2.9,4.7,8.6,4.7c0.7,0,1.3,0,1.8-0.1L125.6,131.1z"/>
<linearGradient id="SVGID_2_" gradientUnits="userSpaceOnUse" x1="167.9843" y1="270.8532" x2="135.9984" y2="399.1418">
	<stop  offset="0" style="stop-color:#00AEEF"/>
	<stop  offset="1" style="stop-color:#0095DA"/>
</linearGradient>
<path class="st1" d="M186.8,199c5.8,0,10.7-3.1,11.9-8.3l0-0.1c1.1-4.6-1.4-6.7-6.9-8.1c-5.1-1.3-6.1-2.2-5.6-4.4l0-0.1
	c0.4-1.8,2.5-3.3,5.3-3.3c2.5,0,4.8,1,6.9,2.9l3.5-3.7c-2.3-2.3-5.2-3.5-9.2-3.5c-5.5,0-10.3,3.3-11.4,8.1l0,0.1
	c-1.2,5.1,1.7,6.9,7.2,8.3c4.9,1.2,5.7,2.3,5.2,4.2l0,0.1c-0.5,2.1-2.8,3.5-5.8,3.5c-3.4,0-5.8-1.3-7.9-3.6l-3.8,3.5
	C178.9,197.5,182.5,199,186.8,199z"/>
<linearGradient id="SVGID_3_" gradientUnits="userSpaceOnUse" x1="202.578" y1="246.6694" x2="171.1348" y2="372.7813">
	<stop  offset="0" style="stop-color:#00AEEF"/>
	<stop  offset="1" style="stop-color:#0095DA"/>
</linearGradient>
<path class="st2" d="M202.3,204.9h4.8l2.3-9.6c1,1.9,2.8,3.7,6.3,3.7c5,0,10.7-3.9,12.4-10.9l0-0.1c1.7-7-2.2-10.9-7.1-10.9
	c-3.4,0-6,1.7-8.1,3.9l0.8-3.5h-4.8L202.3,204.9L202.3,204.9z M215.5,194.9c-3.3,0-5.5-2.7-4.5-6.7l0-0.1c1-4,4.5-6.7,7.7-6.7
	c3.3,0,5.4,2.7,4.4,6.7l0,0.1C222.2,192.3,218.8,194.9,215.5,194.9z"/>
<linearGradient id="SVGID_4_" gradientUnits="userSpaceOnUse" x1="240.4527" y1="205.8462" x2="215.4572" y2="306.0977">
	<stop  offset="0" style="stop-color:#00AEEF"/>
	<stop  offset="1" style="stop-color:#0095DA"/>
</linearGradient>
<path class="st3" d="M242.2,199.1c6.5,0,12.4-5,13.9-10.9l0-0.1c1.5-6-2.1-10.9-8.5-10.9s-12.4,5-13.9,11l0,0.1
	C232.2,194.2,235.8,199.1,242.2,199.1L242.2,199.1z M243.3,194.9c-3.7,0-5.7-3.1-4.8-6.7l0-0.1c0.9-3.7,4.1-6.7,7.9-6.7
	c3.8,0,5.7,3.1,4.8,6.8l0,0.1C250.3,191.8,247.2,194.9,243.3,194.9z"/>
<linearGradient id="SVGID_5_" gradientUnits="userSpaceOnUse" x1="273.5408" y1="169.1854" x2="147.4514" y2="674.9025">
	<stop  offset="0" style="stop-color:#00AEEF"/>
	<stop  offset="1" style="stop-color:#0095DA"/>
</linearGradient>
<path class="st4" d="M260.2,198.6h4.8l1.9-8c1.3-5.6,4.9-8.3,9.2-8.3h0.3l1.2-5.1c-3.7-0.2-6.6,2-8.7,5.1l1.1-4.7h-4.8L260.2,198.6z
	"/>
<linearGradient id="SVGID_6_" gradientUnits="userSpaceOnUse" x1="292.044" y1="163.2064" x2="264.7526" y2="272.6662">
	<stop  offset="0" style="stop-color:#00AEEF"/>
	<stop  offset="1" style="stop-color:#0095DA"/>
</linearGradient>
<path class="st5" d="M285.4,198.9c1.8,0,3.2-0.4,4.6-1.1l1-3.9c-1.1,0.5-2.1,0.7-3.2,0.7c-1.6,0-2.4-0.8-1.9-2.6l2.5-10.3h5.6l1-4.1
	h-5.6l1.4-5.8h-4.8l-1.4,5.8h-2.7l-1,4.1h2.7l-2.7,11C279.7,197.4,281.9,198.9,285.4,198.9z"/>
<linearGradient id="SVGID_7_" gradientUnits="userSpaceOnUse" x1="317.1108" y1="142.8064" x2="286.0276" y2="267.4742">
	<stop  offset="0" style="stop-color:#00AEEF"/>
	<stop  offset="1" style="stop-color:#0095DA"/>
</linearGradient>
<path class="st6" d="M303.7,199c4.4,0,8.3-2.2,9.4-6.6l0-0.1c0.9-3.8-2.2-5.2-5-6.1c-2.3-0.8-4.4-1.4-4-3l0-0.1
	c0.3-1.2,1.6-2.1,3.4-2.1c1.7,0,3.7,0.8,5.4,2l2.7-3.4c-1.9-1.5-4.5-2.4-7.1-2.4c-4.2,0-8.1,2.4-9,6.4l0,0.1c-1,4,2.2,5.3,5.1,6.2
	c2.3,0.8,4.4,1.3,4,2.9l0,0.1c-0.3,1.4-1.7,2.3-3.8,2.3c-2.1,0-4.4-0.9-6.2-2.6l-2.9,3.3C297.7,197.9,300.7,199,303.7,199z"/>
<linearGradient id="SVGID_8_" gradientUnits="userSpaceOnUse" x1="463.6582" y1="-295.5966" x2="286.4146" y2="415.2887">
	<stop  offset="0" style="stop-color:#00AEEF"/>
	<stop  offset="1" style="stop-color:#0095DA"/>
</linearGradient>
<polygon class="st7" points="330.8,198.6 350.3,198.6 351.4,194.1 336.8,194.1 342.4,170.8 337.5,170.8 "/>
<linearGradient id="SVGID_9_" gradientUnits="userSpaceOnUse" x1="391.9172" y1="95.4509" x2="366.9218" y2="195.7023">
	<stop  offset="0" style="stop-color:#00AEEF"/>
	<stop  offset="1" style="stop-color:#0095DA"/>
</linearGradient>
<path class="st8" d="M366.1,199.1c6.5,0,12.4-5,13.9-10.9l0-0.1c1.5-6-2.1-10.9-8.5-10.9c-6.4,0-12.4,5-13.9,11l0,0.1
	C356.2,194.2,359.7,199.1,366.1,199.1L366.1,199.1z M367.2,194.9c-3.7,0-5.7-3.1-4.8-6.7l0-0.1c0.9-3.7,4.1-6.7,7.9-6.7
	c3.8,0,5.7,3.1,4.8,6.8l0,0.1C374.3,191.8,371.1,194.9,367.2,194.9z"/>
<linearGradient id="SVGID_10_" gradientUnits="userSpaceOnUse" x1="585.3107" y1="-571.5854" x2="423.2585" y2="78.3706">
	<stop  offset="0" style="stop-color:#00AEEF"/>
	<stop  offset="1" style="stop-color:#0095DA"/>
</linearGradient>
<path class="st9" d="M391.3,199c3.3,0,5.6-1.7,7.4-3.7l-0.8,3.3h4.8l5.1-21H403l-2.9,11.8c-0.8,3.3-3.2,5.2-6,5.2
	c-2.9,0-4-1.8-3.3-5.1l2.9-11.9H389l-3.2,13.3C384.6,195.8,386.6,199,391.3,199z"/>
<linearGradient id="SVGID_11_" gradientUnits="userSpaceOnUse" x1="650.9643" y1="-727.9525" x2="487.6165" y2="-72.8004">
	<stop  offset="0" style="stop-color:#00AEEF"/>
	<stop  offset="1" style="stop-color:#0095DA"/>
</linearGradient>
<path class="st10" d="M410.6,198.6h4.8l2.9-11.8c0.8-3.3,3.2-5.2,6-5.2c2.9,0,4,1.9,3.2,5.1l-2.9,11.9h4.8l3.2-13.4
	c1.2-4.8-0.8-8-5.5-8c-3.3,0-5.6,1.7-7.4,3.7l0.8-3.2h-4.8L410.6,198.6z"/>
<linearGradient id="SVGID_12_" gradientUnits="userSpaceOnUse" x1="501.5183" y1="-20.9723" x2="469.399" y2="107.8512">
	<stop  offset="0" style="stop-color:#00AEEF"/>
	<stop  offset="1" style="stop-color:#0095DA"/>
</linearGradient>
<path class="st11" d="M444.8,205c3.8,0,6.9-0.9,9.3-2.8c2.2-1.7,3.7-4.4,4.6-7.9l4-16.7h-4.8l-0.8,3.1c-1.2-1.9-2.9-3.6-6.5-3.6
	c-4.9,0-10.4,3.7-11.9,9.8l0,0.1c-1.5,6.2,2.2,9.8,7.2,9.8c3.5,0,6-1.6,8.3-3.9l-0.4,1.6c-1,4.2-3.9,6.4-8.2,6.4
	c-2.9,0-5-0.8-6.9-2.2l-2.7,3.6C438.4,204.1,441.4,205,444.8,205L444.8,205z M448.2,192.8c-3.3,0-5.4-2.3-4.6-5.8l0-0.1
	c0.8-3.5,4-5.8,7.4-5.8c3.3,0,5.6,2.3,4.8,5.8l0,0.1C454.9,190.5,451.5,192.8,448.2,192.8z"/>
<linearGradient id="SVGID_13_" gradientUnits="userSpaceOnUse" x1="527.9749" y1="-16.0583" x2="500.9831" y2="92.1998">
	<stop  offset="0" style="stop-color:#00AEEF"/>
	<stop  offset="1" style="stop-color:#0095DA"/>
</linearGradient>
<path class="st12" d="M475,199.1c3.9,0,7-1.5,9.5-3.9l-2.2-2.5c-2.1,1.6-3.9,2.5-6.3,2.5c-3.1,0-5.1-1.9-4.7-5.3h15.4
	c0.2-0.5,0.3-0.9,0.4-1.3c1.5-6-0.6-11.3-7.3-11.3c-6,0-11.4,4.9-12.9,10.9l0,0.1C465.3,194.7,469,199.1,475,199.1L475,199.1z
	 M472,186.6c1.2-3.3,3.8-5.5,6.8-5.5c3.2,0,4.4,2.4,4,5.5H472z"/>
<g>
	<linearGradient id="SVGID_14_" gradientUnits="userSpaceOnUse" x1="282.3737" y1="213.7439" x2="282.3737" y2="234.0604">
		<stop  offset="0" style="stop-color:#00AEEF"/>
		<stop  offset="1" style="stop-color:#0095DA"/>
	</linearGradient>
	<polygon class="st13" points="282.4,215.6 285,221.2 291.1,221.9 286.6,226.2 287.8,232.2 282.4,229.3 277,232.2 278.1,226.2 
		273.6,221.9 279.7,221.2 	"/>
	<linearGradient id="SVGID_15_" gradientUnits="userSpaceOnUse" x1="323.0497" y1="213.7439" x2="323.0497" y2="234.0604">
		<stop  offset="0" style="stop-color:#00AEEF"/>
		<stop  offset="1" style="stop-color:#0095DA"/>
	</linearGradient>
	<polygon class="st14" points="323,215.6 325.7,221.2 331.8,221.9 327.3,226.2 328.5,232.2 323,229.3 317.6,232.2 318.8,226.2 
		314.3,221.9 320.4,221.2 	"/>
</g>
<g>
	<linearGradient id="SVGID_16_" gradientUnits="userSpaceOnUse" x1="253.7679" y1="36.0124" x2="253.7679" y2="62.7676">
		<stop  offset="0" style="stop-color:#00AEEF"/>
		<stop  offset="1" style="stop-color:#0095DA"/>
	</linearGradient>
	<polygon class="st15" points="253.8,38.4 257.2,45.8 265.3,46.8 259.4,52.4 260.9,60.4 253.8,56.4 246.6,60.4 248.2,52.4 
		242.2,46.8 250.3,45.8 	"/>
	<linearGradient id="SVGID_17_" gradientUnits="userSpaceOnUse" x1="302.7122" y1="23.9833" x2="302.7122" y2="63.9499">
		<stop  offset="0" style="stop-color:#00AEEF"/>
		<stop  offset="1" style="stop-color:#0095DA"/>
	</linearGradient>
	<polygon class="st16" points="302.7,27.6 307.9,38.6 320,40.1 311.1,48.4 313.4,60.4 302.7,54.5 292.1,60.4 294.3,48.4 285.5,40.1 
		297.5,38.6 	"/>
	<linearGradient id="SVGID_18_" gradientUnits="userSpaceOnUse" x1="351.6555" y1="36.0124" x2="351.6555" y2="62.7676">
		<stop  offset="0" style="stop-color:#00AEEF"/>
		<stop  offset="1" style="stop-color:#0095DA"/>
	</linearGradient>
	<polygon class="st17" points="351.7,38.4 355.1,45.8 363.2,46.8 357.3,52.4 358.8,60.4 351.7,56.4 344.5,60.4 346.1,52.4 
		340.1,46.8 348.2,45.8 	"/>
</g>
<linearGradient id="SVGID_19_" gradientUnits="userSpaceOnUse" x1="302.7122" y1="399.9161" x2="302.7122" y2="31.1427">
	<stop  offset="0" style="stop-color:#58595B"/>
	<stop  offset="1" style="stop-color:#A7A9AC"/>
</linearGradient>
<path class="st18" d="M302.7,0c49.8,0,93.2,27.6,115.7,68.3h-4.8C391.5,30,350.1,4.2,302.7,4.2S213.9,30,191.9,68.3H187
	C209.5,27.6,252.9,0,302.7,0L302.7,0z M405.2,215.3c-24.2,29.8-61.1,48.8-102.5,48.8s-78.3-19-102.5-48.8h5.5
	c23.4,27.3,58.2,44.6,97,44.6s73.6-17.3,97-44.6H405.2z"/>
<linearGradient id="SVGID_20_" gradientUnits="userSpaceOnUse" x1="302.7122" y1="384.0028" x2="302.7122" y2="37.1599">
	<stop  offset="0" style="stop-color:#58595B"/>
	<stop  offset="1" style="stop-color:#A7A9AC"/>
</linearGradient>
<path class="st19" d="M302.7,11.8c43,0,80.7,22.6,102,56.5h-4.3c-20.8-31.8-56.8-52.9-97.7-52.9s-76.8,21-97.7,52.9h-4.3
	C222,34.4,259.7,11.8,302.7,11.8L302.7,11.8z M389.5,215.3c-21.9,22.8-52.7,37-86.8,37s-64.9-14.2-86.8-37h5.2
	c21,20.6,49.9,33.4,81.6,33.4s60.6-12.7,81.6-33.4H389.5z"/>
<path class="st20" d="M80,172.7c7.7,0,13.9,1.7,13.9,3.7c0,2-6.2,3.7-13.9,3.7c-7.7,0-13.9-1.7-13.9-3.7
	C66.1,174.3,72.3,172.7,80,172.7L80,172.7z M96.3,186.2v-9.6c0,2.4-7.3,4.3-16.3,4.3c-9,0-16.3-1.9-16.3-4.3v9.6
	c0,2.4,7.3,4.3,16.3,4.3C89,190.5,96.3,188.6,96.3,186.2z"/>
</svg>
