<?xml version="1.0" encoding="utf-8"?>
<!-- Generator: Adobe Illustrator 18.0.0, SVG Export Plug-In . SVG Version: 6.00 Build 0)  -->
<!DOCTYPE svg PUBLIC "-//W3C//DTD SVG 1.1//EN" "http://www.w3.org/Graphics/SVG/1.1/DTD/svg11.dtd">
<svg version="1.1" id="Layer_1" xmlns="http://www.w3.org/2000/svg" xmlns:xlink="http://www.w3.org/1999/xlink" x="0px" y="0px"
	 viewBox="0 0 591.6 121.8" style="enable-background:new 0 0 591.6 121.8;" xml:space="preserve">
<style type="text/css">
	.st0{fill-rule:evenodd;clip-rule:evenodd;fill:url(#SVGID_1_);}
	.st1{fill-rule:evenodd;clip-rule:evenodd;fill:url(#SVGID_2_);}
	.st2{fill-rule:evenodd;clip-rule:evenodd;fill:url(#SVGID_3_);}
	.st3{fill-rule:evenodd;clip-rule:evenodd;fill:url(#SVGID_4_);}
	.st4{fill-rule:evenodd;clip-rule:evenodd;fill:url(#SVGID_5_);}
	.st5{fill-rule:evenodd;clip-rule:evenodd;fill:url(#SVGID_6_);}
	.st6{fill-rule:evenodd;clip-rule:evenodd;fill:url(#SVGID_7_);}
	.st7{fill-rule:evenodd;clip-rule:evenodd;fill:url(#SVGID_8_);}
	.st8{fill-rule:evenodd;clip-rule:evenodd;fill:url(#SVGID_9_);}
	.st9{fill-rule:evenodd;clip-rule:evenodd;fill:url(#SVGID_10_);}
	.st10{fill-rule:evenodd;clip-rule:evenodd;fill:url(#SVGID_11_);}
	.st11{fill-rule:evenodd;clip-rule:evenodd;fill:url(#SVGID_12_);}
	.st12{fill-rule:evenodd;clip-rule:evenodd;fill:url(#SVGID_13_);}
	.st13{fill-rule:evenodd;clip-rule:evenodd;fill:#58595B;}
</style>
<linearGradient id="SVGID_1_" gradientUnits="userSpaceOnUse" x1="295.8135" y1="103.1777" x2="295.8135" y2="-1.157150e-008">
	<stop  offset="0" style="stop-color:#58595B"/>
	<stop  offset="1" style="stop-color:#A7A9AC"/>
</linearGradient>
<path class="st0" d="M271.7,0l-7.3,13.6H95.3L70.5,83.2c-2.3,6.4-5.3,8.6-10.9,11.3c-15.2,7.4-40.2,11-54.8,7.2
	c-3.9-1-7.9-16.6-1.1-15.9c11.7,1.3,40.2-1,48-4.9c4.9-2.4,10.2-11.8,11.4-15.1l18.1-52.2h-39c-4.6,0-8.8,1.3-12.4,4.1
	c-4,2.9-6,6.7-6,11.1c0,3.1,1,4.9,3.1,5.3c1.1-3.6,3-6.4,5.9-8.5c2.6-1.8,5.6-2.7,8.9-2.7c4.2,0,7.6,1.3,10.2,4.1
	c2.4,2.5,3.6,5.5,3.6,9c0,3.7-1.4,6.8-4.3,9.2c-3.2,2.8-7.7,4.2-13.5,4.2c-6.3,0-11.7-1.8-16.2-5.2c-5.1-4-7.7-9.4-7.7-16.2
	c0-7.4,3-13.7,8.9-19c6.7-6,15.8-9,27.4-9H271.7L271.7,0z M483.3,9.8l4.3-9.8H321.2c-22.4,0-33.5,6.6-33.5,19.7c0,4,1.5,9.7,4.4,17
	c2.9,7.3,4.4,12.8,4.4,16.7c0,5.7-2.3,10-7,13c-4,2.6-9,3.9-14.9,3.9c-4.7,0-9.1-0.9-13.3-2.6c-5.4-2.3-8-5.5-8-9.6
	c0-3.6,1.9-6.3,5.8-8.1c3-1.4,6.5-2.1,10.5-2.1h16l-3.9-8.6h-20.5c-20,0-29.9,5.9-29.9,17.6c0,8.1,5.4,14,16.3,17.9
	c7.7,2.8,16.5,4.2,26.5,4.2c10.9,0,20.4-1.8,28.6-5.5c10.9-4.9,16.4-12.3,16.4-22.2c0-4.6-1.6-11-4.8-19.1
	c-3.2-8.1-4.8-13.4-4.8-15.7c0-4.6,2.7-6.9,8.2-6.9C317.9,9.6,481.7,9.7,483.3,9.8L483.3,9.8z M591.6,39.3
	c-1.2,5.7-5.8,8.6-13.9,8.6h-35.9c3.3,3.1,4.8,8.4,4.5,16.2c-0.4,9.1-5.2,17.2-14.6,24.4c-8.4,6.4-16.5,9.6-24.2,9.3
	c-1.5,0-2.8-0.6-3.9-1.7c-1.2-1.1-1.7-2.5-1.7-4c0-0.6,0.1-1.2,0.4-1.9l7-19.8c-1.1,1.7-2.7,3-4.8,4c-2.3,1.1-4.7,1.6-7.3,1.6h-20.8
	c-5.3,0-8-1.8-8-5.5c0-0.4,0-0.9,0.1-1.3c-0.9,1.9-2.4,3.5-4.5,4.7c-2.4,1.4-5.2,2.1-8.3,2.1h-30.1c-12.8,0-21-2.8-24.4-8.5
	c-1,3.1-2.9,5.4-6,6.9c-2.2,1.1-4.6,1.6-7.1,1.6h-23c-4.1,0-6.1-1.5-6.1-4.4c0-1.2,0.3-2.6,0.8-4.2l3.6-11.5l-20.3,16.8
	c-2.5,2.2-5.1,3.3-7.9,3.3h-11l18.9-60.7h19.2L349,57.9l16.8-14.4c4.3-3.7,9.3-5.6,14.8-5.6c3.7,0,5.5,1.8,5.5,5.4
	c0,1.3-0.3,2.8-1,4.5l-6.3,19.6h22.3c-1.2-2-1.8-4.4-1.8-7.2c0-6.8,3-12.1,9-15.9c5.1-3.3,11.3-5,18.4-5h7.8c4.6,0,8.6,0.7,12,2.1
	c4.6,1.9,7,4.7,7.2,8.5c0.2,3.9-1.7,7-5.5,9.6h-17.8l5.7-11.6h-11.4l-4.4,13c-0.2,0.8-0.4,1.4-0.4,2c0,2.9,2.3,4.4,7,4.4h41.9l0,0
	L492.6,0h18.9l-23.7,67.3h22.5l5.6-15.8c-1.8-0.5-3.4-1.5-4.7-2.9c-1.5-1.6-2.2-3.4-2.2-5.5c0-1.3,0.3-2.6,0.9-3.9h10.2l14-39.3
	h19.5l-15.9,39.3H591.6L591.6,39.3z M530.4,72.4c0.9-2.8,1.4-5.2,1.4-7.3c0-2.9-1-5.2-2.9-6.6c-2.9,6.9-7.6,17.3-13.8,31.1
	c2.9-1.5,6-4.1,9.2-7.8C527.4,78.3,529.5,75.1,530.4,72.4L530.4,72.4z M227.4,67.3h-28.9c3.2-0.9,6.1-2.9,8.6-5.9
	c2.4-2.9,3.7-5.8,3.8-8.7c0.3-6.5-3.2-10.6-10.3-12.4c-2.8-0.7-8.2-1.1-16.2-1.1l0,0h-0.8h-0.4l4.5-13h-19.4l-4.1,13h-46.8
	c-7.9,0-14.2,1.6-19,4.9c-4.5,3.1-7.2,7.4-8.1,12.8c-0.2,1-0.3,2-0.3,2.9c0,4.9,2,8.9,6.1,11.9c4.6,3.4,11.1,5.1,19.6,5
	c7.3,0,13.2-1.7,17.8-5c4.8-3.4,7.4-8.1,7.9-14.2c0.1-1.5-0.2-3.4-0.9-5.5c-0.8-2.1-1.7-3.6-2.9-4.3h23.9l-15.2,48.9h19.4L181,47.9
	c2.7-0.1,5.1,0.6,7.3,2.2c2.2,1.5,3.3,3.3,3.3,5.3c0,3.2-0.8,5.8-2.5,7.9c-1.2,1.5-3,2.9-5.4,3.9c-1.7,0.6-3.4,1.3-5,2
	c0.1,4.5,2.4,6.8,6.8,6.8h29.4c3.1,0,5.9-0.7,8.2-2.1C225.6,72.3,227.1,70.1,227.4,67.3L227.4,67.3z M125.6,47.9h-12.4l-4.8,13.9
	c-0.2,0.7-0.4,1.4-0.4,2c0,3.1,2.9,4.7,8.6,4.7c0.7,0,1.3,0,1.8-0.1L125.6,47.9z"/>
<linearGradient id="SVGID_2_" gradientUnits="userSpaceOnUse" x1="167.9843" y1="187.6573" x2="135.9984" y2="315.9459">
	<stop  offset="0" style="stop-color:#00AEEF"/>
	<stop  offset="1" style="stop-color:#0095DA"/>
</linearGradient>
<path class="st1" d="M186.8,115.8c5.8,0,10.7-3.1,11.9-8.3l0-0.1c1.1-4.6-1.4-6.7-6.9-8.1c-5.1-1.3-6.1-2.2-5.6-4.4l0-0.1
	c0.4-1.8,2.5-3.3,5.3-3.3c2.5,0,4.8,1,6.9,2.9l3.5-3.7c-2.3-2.3-5.2-3.5-9.2-3.5c-5.5,0-10.3,3.3-11.4,8.1l0,0.1
	c-1.2,5.1,1.7,6.9,7.2,8.3c4.9,1.2,5.7,2.3,5.2,4.2l0,0.1c-0.5,2.1-2.8,3.5-5.8,3.5c-3.4,0-5.8-1.3-7.9-3.6l-3.8,3.5
	C178.9,114.3,182.5,115.8,186.8,115.8z"/>
<linearGradient id="SVGID_3_" gradientUnits="userSpaceOnUse" x1="202.578" y1="163.4735" x2="171.1348" y2="289.5854">
	<stop  offset="0" style="stop-color:#00AEEF"/>
	<stop  offset="1" style="stop-color:#0095DA"/>
</linearGradient>
<path class="st2" d="M202.3,121.7h4.8l2.3-9.6c1,1.9,2.8,3.7,6.3,3.7c5,0,10.7-3.9,12.4-10.9l0-0.1c1.7-7-2.2-10.9-7.1-10.9
	c-3.4,0-6,1.7-8.1,3.9l0.8-3.5h-4.8L202.3,121.7L202.3,121.7z M215.5,111.7c-3.3,0-5.5-2.7-4.5-6.7l0-0.1c1-4,4.5-6.7,7.7-6.7
	c3.3,0,5.4,2.7,4.4,6.7l0,0.1C222.2,109.1,218.8,111.7,215.5,111.7z"/>
<linearGradient id="SVGID_4_" gradientUnits="userSpaceOnUse" x1="240.4527" y1="122.6502" x2="215.4572" y2="222.9017">
	<stop  offset="0" style="stop-color:#00AEEF"/>
	<stop  offset="1" style="stop-color:#0095DA"/>
</linearGradient>
<path class="st3" d="M242.2,115.9c6.5,0,12.4-5,13.9-10.9l0-0.1c1.5-6-2.1-10.9-8.5-10.9s-12.4,5-13.9,11l0,0.1
	C232.2,111,235.8,115.9,242.2,115.9L242.2,115.9z M243.3,111.7c-3.7,0-5.7-3.1-4.8-6.7l0-0.1c0.9-3.7,4.1-6.7,7.9-6.7
	c3.8,0,5.7,3.1,4.8,6.8l0,0.1C250.3,108.6,247.2,111.7,243.3,111.7z"/>
<linearGradient id="SVGID_5_" gradientUnits="userSpaceOnUse" x1="273.5408" y1="85.9895" x2="147.4514" y2="591.7065">
	<stop  offset="0" style="stop-color:#00AEEF"/>
	<stop  offset="1" style="stop-color:#0095DA"/>
</linearGradient>
<path class="st4" d="M260.2,115.4h4.8l1.9-8c1.3-5.6,4.9-8.3,9.2-8.3h0.3l1.2-5.1c-3.7-0.2-6.6,2-8.7,5.1l1.1-4.7h-4.8L260.2,115.4z
	"/>
<linearGradient id="SVGID_6_" gradientUnits="userSpaceOnUse" x1="292.044" y1="80.0105" x2="264.7526" y2="189.4703">
	<stop  offset="0" style="stop-color:#00AEEF"/>
	<stop  offset="1" style="stop-color:#0095DA"/>
</linearGradient>
<path class="st5" d="M285.4,115.7c1.8,0,3.2-0.4,4.6-1.1l1-3.9c-1.1,0.5-2.1,0.7-3.2,0.7c-1.6,0-2.4-0.8-1.9-2.6l2.5-10.3h5.6l1-4.1
	h-5.6l1.4-5.8h-4.8l-1.4,5.8h-2.7l-1,4.1h2.7l-2.7,11C279.7,114.2,281.9,115.7,285.4,115.7z"/>
<linearGradient id="SVGID_7_" gradientUnits="userSpaceOnUse" x1="317.1108" y1="59.6105" x2="286.0276" y2="184.2783">
	<stop  offset="0" style="stop-color:#00AEEF"/>
	<stop  offset="1" style="stop-color:#0095DA"/>
</linearGradient>
<path class="st6" d="M303.7,115.8c4.4,0,8.3-2.2,9.4-6.6l0-0.1c0.9-3.8-2.2-5.2-5-6.1c-2.3-0.8-4.4-1.4-4-3l0-0.1
	c0.3-1.2,1.6-2.1,3.4-2.1c1.7,0,3.7,0.8,5.4,2l2.7-3.4c-1.9-1.5-4.5-2.4-7.1-2.4c-4.2,0-8.1,2.4-9,6.4l0,0.1c-1,4,2.2,5.3,5.1,6.2
	c2.3,0.8,4.4,1.3,4,2.9l0,0.1c-0.3,1.4-1.7,2.3-3.8,2.3c-2.1,0-4.4-0.9-6.2-2.6l-2.9,3.3C297.7,114.7,300.7,115.8,303.7,115.8z"/>
<linearGradient id="SVGID_8_" gradientUnits="userSpaceOnUse" x1="463.6582" y1="-378.7925" x2="286.4146" y2="332.0927">
	<stop  offset="0" style="stop-color:#00AEEF"/>
	<stop  offset="1" style="stop-color:#0095DA"/>
</linearGradient>
<polygon class="st7" points="330.8,115.4 350.3,115.4 351.4,110.9 336.8,110.9 342.4,87.6 337.5,87.6 "/>
<linearGradient id="SVGID_9_" gradientUnits="userSpaceOnUse" x1="391.9172" y1="12.2549" x2="366.9218" y2="112.5063">
	<stop  offset="0" style="stop-color:#00AEEF"/>
	<stop  offset="1" style="stop-color:#0095DA"/>
</linearGradient>
<path class="st8" d="M366.1,115.9c6.5,0,12.4-5,13.9-10.9l0-0.1c1.5-6-2.1-10.9-8.5-10.9c-6.4,0-12.4,5-13.9,11l0,0.1
	C356.2,111,359.7,115.9,366.1,115.9L366.1,115.9z M367.2,111.7c-3.7,0-5.7-3.1-4.8-6.7l0-0.1c0.9-3.7,4.1-6.7,7.9-6.7
	c3.8,0,5.7,3.1,4.8,6.8l0,0.1C374.3,108.6,371.1,111.7,367.2,111.7z"/>
<linearGradient id="SVGID_10_" gradientUnits="userSpaceOnUse" x1="585.3107" y1="-654.7813" x2="423.2585" y2="-4.8253">
	<stop  offset="0" style="stop-color:#00AEEF"/>
	<stop  offset="1" style="stop-color:#0095DA"/>
</linearGradient>
<path class="st9" d="M391.3,115.8c3.3,0,5.6-1.7,7.4-3.7l-0.8,3.3h4.8l5.1-21H403l-2.9,11.8c-0.8,3.3-3.2,5.2-6,5.2
	c-2.9,0-4-1.8-3.3-5.1l2.9-11.9H389l-3.2,13.3C384.6,112.6,386.6,115.8,391.3,115.8z"/>
<linearGradient id="SVGID_11_" gradientUnits="userSpaceOnUse" x1="650.9643" y1="-811.1484" x2="487.6165" y2="-155.9964">
	<stop  offset="0" style="stop-color:#00AEEF"/>
	<stop  offset="1" style="stop-color:#0095DA"/>
</linearGradient>
<path class="st10" d="M410.6,115.4h4.8l2.9-11.8c0.8-3.3,3.2-5.2,6-5.2c2.9,0,4,1.9,3.2,5.1l-2.9,11.9h4.8l3.2-13.4
	c1.2-4.8-0.8-8-5.5-8c-3.3,0-5.6,1.7-7.4,3.7l0.8-3.2h-4.8L410.6,115.4z"/>
<linearGradient id="SVGID_12_" gradientUnits="userSpaceOnUse" x1="501.5183" y1="-104.1682" x2="469.399" y2="24.6553">
	<stop  offset="0" style="stop-color:#00AEEF"/>
	<stop  offset="1" style="stop-color:#0095DA"/>
</linearGradient>
<path class="st11" d="M444.8,121.8c3.8,0,6.9-0.9,9.3-2.8c2.2-1.7,3.7-4.4,4.6-7.9l4-16.7h-4.8l-0.8,3.1c-1.2-1.9-2.9-3.6-6.5-3.6
	c-4.9,0-10.4,3.7-11.9,9.8l0,0.1c-1.5,6.2,2.2,9.8,7.2,9.8c3.5,0,6-1.6,8.3-3.9l-0.4,1.6c-1,4.2-3.9,6.4-8.2,6.4
	c-2.9,0-5-0.8-6.9-2.2l-2.7,3.6C438.4,120.9,441.4,121.8,444.8,121.8L444.8,121.8z M448.2,109.6c-3.3,0-5.4-2.3-4.6-5.8l0-0.1
	c0.8-3.5,4-5.8,7.4-5.8c3.3,0,5.6,2.3,4.8,5.8l0,0.1C454.9,107.3,451.5,109.6,448.2,109.6z"/>
<linearGradient id="SVGID_13_" gradientUnits="userSpaceOnUse" x1="527.9749" y1="-99.2543" x2="500.9831" y2="9.0039">
	<stop  offset="0" style="stop-color:#00AEEF"/>
	<stop  offset="1" style="stop-color:#0095DA"/>
</linearGradient>
<path class="st12" d="M475,115.9c3.9,0,7-1.5,9.5-3.9l-2.2-2.5c-2.1,1.6-3.9,2.5-6.3,2.5c-3.1,0-5.1-1.9-4.7-5.3h15.4
	c0.2-0.5,0.3-0.9,0.4-1.3c1.5-6-0.6-11.3-7.3-11.3c-6,0-11.4,4.9-12.9,10.9l0,0.1C465.3,111.5,469,115.9,475,115.9L475,115.9z
	 M472,103.4c1.2-3.3,3.8-5.5,6.8-5.5c3.2,0,4.4,2.4,4,5.5H472z"/>
<path class="st13" d="M80,89.5c7.7,0,13.9,1.7,13.9,3.7c0,2-6.2,3.7-13.9,3.7c-7.7,0-13.9-1.7-13.9-3.7C66.1,91.2,72.3,89.5,80,89.5
	L80,89.5z M96.3,103v-9.6c0,2.4-7.3,4.3-16.3,4.3c-9,0-16.3-1.9-16.3-4.3v9.6c0,2.4,7.3,4.3,16.3,4.3C89,107.3,96.3,105.4,96.3,103z
	"/>
</svg>
